# xmcd
#
# Track frame offsets:
#	150
#	16900
#	27758
#	48869
#	60371
#	77175
#	91756
#	105897
#	122846
#	138209
#	153909
#	168914
#	189093
#	202701
#	217316
#	236592
#	252015
#	267865
#	278220
#
# Disc length: 3950 seconds
#
# Revision: 1
# Processed by: cddbd v1.5.2PL0 Copyright (c) Steve Scherf et al.
# Submitted via: audiograbber 1.83.01
#
DISCID=e70f6c13
DTITLE=Waldenfels T. and Richter R- - Reinventing the Wheel and other hopeless en
DTITLE=deavours
DYEAR=2005
DGENRE=Blues
TTITLE0=T.Waldenfels and Richter R. - Mighty Crazy
TTITLE1=T.Waldenfels and Richter R. - All Shook Up
TTITLE2=T.Waldenfels and Richter R. - Crazy ´Bout An Automobile
TTITLE3=T.Waldenfels and Richter R. - San Francisco Bay Blues
TTITLE4=T.Waldenfels and Richter R. - Mystery Train
TTITLE5=T.Waldenfels and Richter R. - No Expectations
TTITLE6=T.Waldenfels and Richter R. - Stop Messing ´Round
TTITLE7=T.Waldenfels and Richter R. - You Don´t Know My Mind
TTITLE8=T.Waldenfels and Richter R. - Country Honk
TTITLE9=T.Waldenfels and Richter R. - The Gipsy Woman Told My Mother
TTITLE10=T.Waldenfels and Richter R. - Mind Your Own Business
TTITLE11=T.Waldenfels and Richter R. - Little Queenie
TTITLE12=T.Waldenfels and Richter R. - Dead End Street People
TTITLE13=T.Waldenfels and Richter R. - I Need Case
TTITLE14=T.Waldenfels and Richter R. - To and Fro
TTITLE15=T.Waldenfels and Richter R. - If I Was Jesus
TTITLE16=T.Waldenfels and Richter R. - Medical Blues
TTITLE17=T.Waldenfels and Richter R. - Wanderlust
TTITLE18=T.Waldenfels and Richter R. - Twelve Bar Blues
EXTD=
EXTT0=
EXTT1=
EXTT2=
EXTT3=
EXTT4=
EXTT5=
EXTT6=
EXTT7=
EXTT8=
EXTT9=
EXTT10=
EXTT11=
EXTT12=
EXTT13=
EXTT14=
EXTT15=
EXTT16=
EXTT17=
EXTT18=
PLAYORDER=
